<svg width="870" height="521" viewBox="0 0 870 521" fill="none" xmlns="http://www.w3.org/2000/svg">
<g id="undraw_Login_re_4vu2 1" clip-path="url(#clip0)">
<path id="Vector" d="M666.092 514.257C654.954 504.845 648.189 489.977 649.963 475.503C651.737 461.029 662.726 447.723 676.981 444.649C691.236 441.576 707.485 450.084 711.815 464.009C714.198 437.162 716.943 409.191 731.217 386.329C744.141 365.628 766.525 350.815 790.785 348.165C815.045 345.515 840.588 355.524 855.718 374.672C870.848 393.82 874.553 421.658 863.956 443.641C856.15 459.836 841.768 471.888 826.699 481.693C778.008 513.11 719.608 525.886 662.246 517.67L666.092 514.257Z" fill="#F2F2F2"/>
<path id="Vector_2" d="M831.728 356.079C811.71 372.383 793.346 390.619 776.902 410.521C751.166 441.562 730.34 476.364 715.15 513.715C714.038 516.44 718.462 517.626 719.562 514.931C744.416 454.228 784.092 400.724 834.963 359.314C837.248 357.454 833.993 354.234 831.728 356.079Z" fill="white"/>
<path id="Vector_3" d="M280.067 511.699C295.366 498.772 304.658 478.351 302.221 458.471C299.784 438.591 284.69 420.315 265.112 416.094C245.533 411.872 223.214 423.558 217.267 442.684C213.995 405.81 210.223 367.392 190.619 335.991C172.868 307.558 142.122 287.213 108.801 283.573C75.4801 279.933 40.3972 293.68 19.6161 319.98C-1.1651 346.28 -6.25327 384.515 8.30131 414.709C19.0232 436.952 38.7766 453.506 59.4733 466.973C125.503 509.939 207.412 527.858 285.351 516.388" fill="#F2F2F2"/>
<path id="Vector_4" d="M52.5667 294.442C80.0607 316.836 105.284 341.882 127.871 369.218C150.461 396.526 170.349 425.961 187.257 457.109C196.707 474.582 205.196 492.557 212.687 510.955C214.214 514.698 208.137 516.327 206.627 512.626C193.359 480.19 176.944 449.133 157.618 419.899C138.385 390.771 116.373 363.578 91.889 338.701C78.041 324.637 63.4301 311.345 48.1227 298.886C44.9851 296.331 49.455 291.908 52.5667 294.442L52.5667 294.442Z" fill="white"/>
<path id="Vector_5" d="M624.5 519H259.5V144.5C259.5 64.8223 324.322 0 404 0H480C559.678 0 624.5 64.8223 624.5 144.5V519Z" fill="#F2F2F2"/>
<path id="Vector_6" d="M548.5 519H259.5V144.5C259.42 113.969 269.088 84.2103 287.096 59.5557C287.76 58.6509 288.422 57.7578 289.104 56.8745C297.815 45.4506 308.18 35.3897 319.859 27.0239C320.518 26.5439 321.181 26.0723 321.853 25.6006C331.625 18.838 342.196 13.3097 353.325 9.1416C353.986 8.89111 354.659 8.64013 355.332 8.3994C365.397 4.80747 375.83 2.34703 386.44 1.06348C387.098 0.973628 387.773 0.903319 388.448 0.833009C398.787 -0.272461 409.215 -0.272461 419.554 0.833009C420.227 0.903319 420.902 0.973619 421.568 1.06444C432.175 2.34807 442.606 4.80822 452.668 8.39945C453.341 8.64018 454.014 8.89114 454.677 9.14212C465.669 13.2577 476.115 18.7035 485.783 25.3579C486.455 25.8194 487.127 26.2911 487.79 26.7627C494.336 31.4355 500.485 36.6412 506.173 42.3267C510.735 46.8871 514.986 51.7483 518.898 56.8775C519.578 57.7579 520.24 58.6509 520.903 59.5543C538.911 84.2091 548.58 113.969 548.5 144.5V519Z" fill="#CCCCCC"/>
<path id="Vector_7" d="M525 351.5C533.836 351.5 541 344.337 541 335.5C541 326.663 533.836 319.5 525 319.5C516.163 319.5 509 326.663 509 335.5C509 344.337 516.163 351.5 525 351.5Z" fill="#6C63FF"/>
<path id="Vector_8" d="M594.599 507.783H582.339L576.506 460.495L594.601 460.496L594.599 507.783Z" fill="#FFB8B8"/>
<path id="Vector_9" d="M573.582 504.28H597.225V519.167H558.695C558.695 517.212 559.08 515.276 559.828 513.47C560.576 511.664 561.673 510.022 563.055 508.64C564.437 507.258 566.079 506.161 567.885 505.413C569.691 504.665 571.627 504.28 573.582 504.28V504.28Z" fill="#2F2E41"/>
<path id="Vector_10" d="M655.599 507.783H643.339L637.506 460.495L655.601 460.496L655.599 507.783Z" fill="#FFB8B8"/>
<path id="Vector_11" d="M634.582 504.28H658.225V519.167H619.695C619.695 517.212 620.08 515.276 620.828 513.47C621.576 511.664 622.673 510.022 624.055 508.64C625.437 507.258 627.079 506.161 628.885 505.413C630.691 504.665 632.627 504.28 634.582 504.28V504.28Z" fill="#2F2E41"/>
<path id="Vector_12" d="M533.098 338.67C532.216 337.37 531.629 335.893 531.38 334.343C531.131 332.792 531.224 331.206 531.654 329.695C532.084 328.185 532.84 326.787 533.869 325.6C534.898 324.413 536.174 323.467 537.608 322.827L579.284 207.96L599.791 219.151L552.206 328.922C553.122 331.403 553.096 334.133 552.133 336.595C551.17 339.058 549.337 341.082 546.982 342.283C544.626 343.485 541.912 343.781 539.353 343.115C536.794 342.449 534.568 340.867 533.098 338.67V338.67Z" fill="#FFB8B8"/>
<path id="Vector_13" d="M649.336 360.254C647.974 359.472 646.799 358.402 645.895 357.118C644.991 355.834 644.38 354.367 644.104 352.821C643.828 351.275 643.895 349.687 644.299 348.169C644.703 346.652 645.435 345.241 646.443 344.037L633.533 222.528L656.87 223.594L662.236 343.114C664.147 344.942 665.32 347.408 665.535 350.043C665.749 352.678 664.989 355.301 663.399 357.414C661.809 359.526 659.499 360.982 656.907 361.506C654.316 362.029 651.622 361.584 649.336 360.254V360.254Z" fill="#FFB8B8"/>
<path id="Vector_14" d="M612.106 186.684C625.67 186.684 636.667 175.687 636.667 162.123C636.667 148.558 625.67 137.562 612.106 137.562C598.541 137.562 587.545 148.558 587.545 162.123C587.545 175.687 598.541 186.684 612.106 186.684Z" fill="#FFB8B8"/>
<path id="Vector_15" d="M649.18 332.619H575.133L575.222 332.043C575.355 331.181 588.419 245.604 578.784 217.607C577.817 214.855 577.902 211.844 579.022 209.151C580.143 206.459 582.22 204.276 584.853 203.023H584.853C598.625 196.538 625.061 188.552 647.373 207.932C650.657 210.831 653.22 214.454 654.862 218.515C656.504 222.575 657.179 226.962 656.833 231.328L649.18 332.619Z" fill="#6C63FF"/>
<path id="Vector_16" d="M589.354 258.25L556.018 251.487L571.644 214.457C572.579 210.871 574.899 207.802 578.094 205.923C581.289 204.044 585.098 203.51 588.687 204.436C592.276 205.363 595.351 207.675 597.237 210.865C599.124 214.056 599.667 217.864 598.75 221.455L589.354 258.25Z" fill="#6C63FF"/>
<path id="Vector_17" d="M632.05 270.808L630.046 224.867C628.526 216.23 633.47 208.066 641.074 206.732C648.679 205.402 656.105 211.392 657.632 220.092L665.165 263.019L632.05 270.808Z" fill="#6C63FF"/>
<path id="Vector_18" d="M646.716 327.119C658.631 372.495 659.93 430.188 656.716 493.119L640.716 491.119L611.716 371.119L595.716 493.119L577.716 492.119C572.339 426.089 567.103 369.403 575.716 332.119L646.716 327.119Z" fill="#2F2E41"/>
<path id="Vector_19" d="M628.289 181.104C623.707 185.985 615.198 183.365 614.601 176.697C614.554 176.179 614.557 175.658 614.611 175.141C614.919 172.188 616.625 169.506 616.217 166.388C616.124 165.611 615.835 164.872 615.377 164.239C611.725 159.349 603.154 166.425 599.708 161.999C597.595 159.285 600.079 155.012 598.458 151.979C596.318 147.975 589.979 149.95 586.004 147.758C581.581 145.318 581.846 138.532 584.757 134.405C588.308 129.371 594.533 126.685 600.68 126.298C606.828 125.911 612.933 127.573 618.673 129.81C625.194 132.351 631.66 135.863 635.673 141.597C640.554 148.57 641.023 157.945 638.583 166.099C637.098 171.059 632.031 177.118 628.289 181.104Z" fill="#2F2E41"/>
<path id="Vector_20" d="M839.982 519.644H101.688C101.372 519.643 101.07 519.517 100.848 519.294C100.625 519.07 100.5 518.768 100.5 518.453C100.5 518.138 100.625 517.835 100.848 517.612C101.07 517.389 101.372 517.263 101.688 517.262H839.982C840.297 517.263 840.599 517.389 840.821 517.612C841.044 517.835 841.169 518.138 841.169 518.453C841.169 518.768 841.044 519.07 840.821 519.294C840.599 519.517 840.297 519.643 839.982 519.644V519.644Z" fill="#3F3D56"/>
<path id="Vector_21" d="M469 410.5H339C337.288 410.509 335.642 409.839 334.424 408.636C333.205 407.434 332.513 405.797 332.5 404.085V113.915C332.513 112.203 333.205 110.566 334.424 109.364C335.642 108.161 337.288 107.491 339 107.5H469C470.712 107.491 472.358 108.161 473.576 109.364C474.795 110.566 475.487 112.203 475.5 113.915V404.085C475.487 405.797 474.795 407.434 473.576 408.636C472.358 409.839 470.712 410.509 469 410.5Z" fill="white"/>
<path id="Vector_22" d="M475.5 201.39H332.5V203.39H475.5V201.39Z" fill="#CCCCCC"/>
<path id="Vector_23" d="M476 315.5H333V317.5H476V315.5Z" fill="#CCCCCC"/>
<path id="Vector_24" d="M379.5 107.5H377.5V411.5H379.5V107.5Z" fill="#CCCCCC"/>
<path id="Vector_25" d="M429.5 107.5H427.5V411.5H429.5V107.5Z" fill="#CCCCCC"/>
<g id="label">
<rect id="Rectangle 26" x="358" y="64" width="77" height="21" rx="6" fill="#6C63FF"/>
<path id="Remind" d="M381.119 75.5488H379.115V79H377.984V70.4688H380.809C381.77 70.4688 382.508 70.6875 383.023 71.125C383.543 71.5625 383.803 72.1992 383.803 73.0352C383.803 73.5664 383.658 74.0293 383.369 74.4238C383.084 74.8184 382.686 75.1133 382.174 75.3086L384.178 78.9297V79H382.971L381.119 75.5488ZM379.115 74.6289H380.844C381.402 74.6289 381.846 74.4844 382.174 74.1953C382.506 73.9062 382.672 73.5195 382.672 73.0352C382.672 72.5078 382.514 72.1035 382.197 71.8223C381.885 71.541 381.432 71.3984 380.838 71.3945H379.115V74.6289ZM387.846 79.1172C386.986 79.1172 386.287 78.8359 385.748 78.2734C385.209 77.707 384.939 76.9512 384.939 76.0059V75.8066C384.939 75.1777 385.059 74.6172 385.297 74.125C385.539 73.6289 385.875 73.2422 386.305 72.9648C386.738 72.6836 387.207 72.543 387.711 72.543C388.535 72.543 389.176 72.8145 389.633 73.3574C390.09 73.9004 390.318 74.6777 390.318 75.6895V76.1406H386.023C386.039 76.7656 386.221 77.2715 386.568 77.6582C386.92 78.041 387.365 78.2324 387.904 78.2324C388.287 78.2324 388.611 78.1543 388.877 77.998C389.143 77.8418 389.375 77.6348 389.574 77.377L390.236 77.8926C389.705 78.709 388.908 79.1172 387.846 79.1172ZM387.711 73.4336C387.273 73.4336 386.906 73.5938 386.609 73.9141C386.312 74.2305 386.129 74.6758 386.059 75.25H389.234V75.168C389.203 74.6172 389.055 74.1914 388.789 73.8906C388.523 73.5859 388.164 73.4336 387.711 73.4336ZM392.598 72.6602L392.627 73.3633C393.092 72.8164 393.719 72.543 394.508 72.543C395.395 72.543 395.998 72.8828 396.318 73.5625C396.529 73.2578 396.803 73.0117 397.139 72.8242C397.479 72.6367 397.879 72.543 398.34 72.543C399.73 72.543 400.438 73.2793 400.461 74.752V79H399.377V74.8164C399.377 74.3633 399.273 74.0254 399.066 73.8027C398.859 73.5762 398.512 73.4629 398.023 73.4629C397.621 73.4629 397.287 73.584 397.021 73.8262C396.756 74.0645 396.602 74.3867 396.559 74.793V79H395.469V74.8457C395.469 73.9238 395.018 73.4629 394.115 73.4629C393.404 73.4629 392.918 73.7656 392.656 74.3711V79H391.572V72.6602H392.598ZM403.279 79H402.195V72.6602H403.279V79ZM402.107 70.9785C402.107 70.8027 402.16 70.6543 402.266 70.5332C402.375 70.4121 402.535 70.3516 402.746 70.3516C402.957 70.3516 403.117 70.4121 403.227 70.5332C403.336 70.6543 403.391 70.8027 403.391 70.9785C403.391 71.1543 403.336 71.3008 403.227 71.418C403.117 71.5352 402.957 71.5938 402.746 71.5938C402.535 71.5938 402.375 71.5352 402.266 71.418C402.16 71.3008 402.107 71.1543 402.107 70.9785ZM406.045 72.6602L406.08 73.457C406.564 72.8477 407.197 72.543 407.979 72.543C409.318 72.543 409.994 73.2988 410.006 74.8105V79H408.922V74.8047C408.918 74.3477 408.812 74.0098 408.605 73.791C408.402 73.5723 408.084 73.4629 407.65 73.4629C407.299 73.4629 406.99 73.5566 406.725 73.7441C406.459 73.9316 406.252 74.1777 406.104 74.4824V79H405.02V72.6602H406.045ZM411.377 75.7773C411.377 74.8047 411.607 74.0234 412.068 73.4336C412.529 72.8398 413.133 72.543 413.879 72.543C414.621 72.543 415.209 72.7969 415.643 73.3047V70H416.727V79H415.73L415.678 78.3203C415.244 78.8516 414.641 79.1172 413.867 79.1172C413.133 79.1172 412.533 78.8164 412.068 78.2148C411.607 77.6133 411.377 76.8281 411.377 75.8594V75.7773ZM412.461 75.9004C412.461 76.6191 412.609 77.1816 412.906 77.5879C413.203 77.9941 413.613 78.1973 414.137 78.1973C414.824 78.1973 415.326 77.8887 415.643 77.2715V74.3594C415.318 73.7617 414.82 73.4629 414.148 73.4629C413.617 73.4629 413.203 73.668 412.906 74.0781C412.609 74.4883 412.461 75.0957 412.461 75.9004Z" fill="#EFF1FF"/>
</g>
</g>
<defs>
<clipPath id="clip0">
<rect width="870" height="520.139" fill="white"/>
</clipPath>
</defs>
</svg>
