<svg width="512" height="512" viewBox="0 0 512 512" fill="none" xmlns="http://www.w3.org/2000/svg">
<g clip-path="url(#clip0)">
<path d="M256 459.412L127.623 468.412L0 459.412V381.537C0 327.02 44.195 282.825 98.712 282.825H157.287C211.804 282.825 255.999 327.02 255.999 381.537L264.999 419.739L256 459.412Z" fill="#DC4955"/>
<path d="M5.166 478.011H42.816L50.566 469.011L58.316 478.011H197.683L205.433 469.011L213.182 478.011H256L265 468.712L256 459.413H0V472.845C0 475.698 2.313 478.011 5.166 478.011V478.011Z" fill="#D82F3C"/>
<path d="M128 322.075C161.76 322.075 160.947 284.32 160.904 282.892C159.745 282.852 158.584 282.824 157.415 282.824H98.84C97.586 282.824 96.339 282.855 95.096 282.902C95.049 284.524 94.332 322.075 128 322.075Z" fill="#E2AE84"/>
<path d="M58.316 393.737V459.412L50.566 468.412L42.816 459.412V393.737C42.816 389.459 46.288 385.988 50.566 385.988C54.844 385.987 58.316 389.459 58.316 393.737Z" fill="#C42D41"/>
<path d="M213.181 393.737V459.412L205.432 468.412L197.682 459.412V393.737C197.682 389.459 201.154 385.988 205.432 385.988C209.71 385.987 213.181 389.459 213.181 393.737Z" fill="#C42D41"/>
<path d="M42.817 459.411H58.316V478.01H42.817V459.411Z" fill="#B72D47"/>
<path d="M197.682 459.411H213.181V478.01H197.682V459.411Z" fill="#B72D47"/>
<path d="M22.119 174.25C-2.73995 117.572 -7.42895 63.546 47.883 46.864C174.765 8.59803 181.254 67.822 181.254 67.822C181.254 67.822 271.124 71.799 237.117 182.802L22.119 174.25Z" fill="#26457D"/>
<path d="M45.121 161.156C35.346 161.156 26.776 166.415 22.119 174.249C23.733 177.893 25.905 182.629 27.677 186.292L47.883 186.928V161.298C46.975 161.205 46.053 161.156 45.121 161.156Z" fill="#21386B"/>
<path d="M233.822 192.784C235.031 189.359 236.124 186.043 237.117 182.802C234.747 170.475 223.899 161.156 210.88 161.156C209.947 161.156 209.026 161.205 208.118 161.298V191.974L233.822 192.784Z" fill="#21386B"/>
<path d="M42.287 222.292L47.923 214.438L55.307 209.706L47.883 179.897C46.975 179.804 46.053 179.755 45.121 179.755C33.638 179.755 23.849 187.001 20.073 197.17C20.072 207.301 30.804 222.292 42.287 222.292V222.292Z" fill="#E2AE84"/>
<path d="M45.121 214.585C33.638 214.585 23.849 207.339 20.073 197.17C18.997 200.066 18.407 203.199 18.407 206.469C18.407 221.223 30.367 233.183 45.121 233.183C46.987 233.183 48.809 232.99 50.567 232.626L55.306 221.356L47.922 214.437C47.002 214.534 46.067 214.585 45.121 214.585V214.585Z" fill="#D7A379"/>
<path d="M213.713 222.292L208.077 214.438L200.693 209.706L208.117 179.897C209.025 179.804 209.947 179.755 210.879 179.755C222.362 179.755 232.151 187.001 235.927 197.17C235.927 207.301 225.196 222.292 213.713 222.292V222.292Z" fill="#E2AE84"/>
<path d="M210.879 214.585C222.362 214.585 232.151 207.339 235.927 197.17C237.003 200.066 237.593 203.199 237.593 206.469C237.593 221.223 225.633 233.183 210.879 233.183C209.012 233.183 207.191 232.99 205.433 232.626L200.694 221.356L208.078 214.437C208.998 214.534 209.933 214.585 210.879 214.585V214.585Z" fill="#D7A379"/>
<path d="M128 282.525C186.934 282.525 208.117 237.656 208.117 193.408V161.782C208.117 159.924 207.113 158.221 205.5 157.299C186.123 146.221 172.383 120.693 166.879 109.015C165.474 106.033 161.651 105.113 159.054 107.144C111.715 144.173 67.735 147.539 53.051 147.514C50.194 147.509 47.884 149.822 47.884 152.679V193.409C47.883 237.656 72.434 282.525 128 282.525V282.525Z" fill="#F0C69E"/>
<path d="M128 273.525C83.7531 273.525 47.8831 237.656 47.8831 193.408V212.007C47.8831 256.255 83.7531 292.124 128 292.124C172.247 292.124 208.117 256.255 208.117 212.007V193.408C208.117 237.656 172.247 273.525 128 273.525Z" fill="#E6BA94"/>
<path d="M127.62 240.523C135.338 255.328 152.018 254.543 159.872 253.226C162.458 252.792 164.302 250.459 164.136 247.842C163.544 238.488 158.734 217.635 127.623 217.635C96.511 217.635 91.702 238.488 91.109 247.842C90.943 250.459 92.787 252.792 95.373 253.226C103.228 254.543 119.907 255.328 127.625 240.523H127.62Z" fill="#26457D"/>
<path d="M508.752 282.358C502.624 278.981 490.277 269.443 493.864 248.622C520.266 95.3789 453.835 38.5859 384 38.5859C314.166 38.5859 247.734 95.3789 274.136 248.622C277.723 269.443 265.377 278.981 259.248 282.358C257.211 283.48 256.188 285.807 256.71 288.073C257.759 292.628 260.306 300.242 266.365 307.621C266.366 307.619 266.368 307.616 266.37 307.614C266.365 307.621 501.63 307.614 501.63 307.614C501.632 307.616 501.633 307.619 501.635 307.621C507.694 300.242 510.241 292.628 511.29 288.073C511.812 285.808 510.788 283.481 508.752 282.358V282.358Z" fill="#26457D"/>
<path d="M424.122 273.525H343.877C313.2 273.525 285.594 286.663 266.369 307.616C270.476 312.62 276.188 317.517 284.156 321.278H483.843C491.811 317.516 497.522 312.62 501.63 307.616C482.406 286.663 454.799 273.525 424.122 273.525Z" fill="#21386B"/>
<path d="M512 459.412L383.872 468.412L256 459.412V381.537C256 327.02 300.195 282.825 354.712 282.825H413.287C467.804 282.825 511.999 327.02 511.999 381.537V459.412H512Z" fill="#B3E59F"/>
<path d="M256 478.011H298.818L306.567 469.011L314.317 478.011H453.684L461.434 469.011L469.183 478.011H506.833C509.686 478.011 511.999 475.698 511.999 472.845V459.413H256V478.011Z" fill="#95D6A4"/>
<path d="M383.872 322.075C417.632 322.075 416.819 284.32 416.776 282.892C415.617 282.852 414.456 282.824 413.287 282.824H354.712C353.458 282.824 352.211 282.855 350.968 282.902C350.922 284.524 350.205 322.075 383.872 322.075Z" fill="#E2AE84"/>
<path d="M314.318 393.737V459.412L306.568 468.412L298.819 459.412V393.737C298.819 389.459 302.291 385.988 306.568 385.988C310.846 385.987 314.318 389.459 314.318 393.737Z" fill="#78C2A4"/>
<path d="M469.183 393.737V459.412L461.434 468.412L453.684 459.412V393.737C453.684 389.459 457.156 385.988 461.434 385.988C465.711 385.987 469.183 389.459 469.183 393.737Z" fill="#78C2A4"/>
<path d="M298.819 459.411H314.318V478.01H298.819V459.411Z" fill="#66B394"/>
<path d="M453.684 459.411H469.183V478.01H453.684V459.411Z" fill="#66B394"/>
<path d="M384 282.525C445.408 282.525 464.117 237.656 464.117 193.408V173.885C464.117 171.928 463.005 170.149 461.256 169.27C437.373 157.274 422.319 130.89 415.895 117.421C414.234 113.937 409.493 113.433 407.141 116.493C376.856 155.879 323.354 168.586 308.068 171.5C305.635 171.964 303.883 174.095 303.883 176.572V193.409C303.883 237.656 322.259 282.525 384 282.525V282.525Z" fill="#F0C69E"/>
<path d="M384 273.525C339.753 273.525 303.883 237.656 303.883 193.408V212.007C303.883 256.255 339.753 292.124 384 292.124C428.247 292.124 464.117 256.255 464.117 212.007V193.408C464.117 237.656 428.247 273.525 384 273.525Z" fill="#E6BA94"/>
<path d="M88.693 212.981C92.985 212.981 96.465 209.502 96.465 205.209V187.196C96.465 182.903 92.985 179.424 88.693 179.424C84.401 179.424 80.921 182.903 80.921 187.196V205.209C80.921 209.502 84.401 212.981 88.693 212.981Z" fill="#5E6B75"/>
<path d="M166.562 212.981C170.854 212.981 174.334 209.502 174.334 205.209V187.196C174.334 182.903 170.854 179.424 166.562 179.424C162.27 179.424 158.79 182.903 158.79 187.196V205.209C158.79 209.502 162.27 212.981 166.562 212.981Z" fill="#5E6B75"/>
<path d="M345.437 179.424C341.144 179.424 337.665 182.903 337.665 187.196V205.209C337.665 209.502 341.144 212.981 345.437 212.981C349.73 212.981 353.209 209.502 353.209 205.209V187.196C353.209 182.903 349.73 179.424 345.437 179.424Z" fill="#5E6B75"/>
<path d="M423.306 212.981C427.599 212.981 431.078 209.502 431.078 205.209V187.196C431.078 182.903 427.599 179.424 423.306 179.424C419.013 179.424 415.534 182.903 415.534 187.196V205.209C415.534 209.502 419.013 212.981 423.306 212.981Z" fill="#5E6B75"/>
<path d="M408.939 240.563C413.303 230.926 399.457 224.496 394.858 233.927C394.618 234.413 392.284 238.67 384.371 238.67C376.458 238.67 374.124 234.413 373.884 233.927C369.285 224.496 355.44 230.926 359.803 240.563C362.223 245.868 369.85 254.243 384.371 254.243C398.893 254.242 406.519 245.867 408.939 240.563V240.563Z" fill="#DC4955"/>
</g>
<defs>
<clipPath id="clip0">
<rect width="512" height="512" fill="white"/>
</clipPath>
</defs>
</svg>
