<svg width="512" height="512" viewBox="0 0 512 512" fill="none" xmlns="http://www.w3.org/2000/svg">
<g clip-path="url(#clip0)">
<path d="M408.114 502.36H103.886L94.246 492.72V425.859C94.246 389.235 110.029 356.298 135.164 333.477H376.836C401.971 356.298 417.754 389.235 417.754 425.859V492.72L408.114 502.36Z" fill="#86DCFF"/>
<path d="M99.602 512H150.62L158.12 503L165.62 512H346.38L353.88 503L361.38 512H412.398C415.356 512 417.754 509.602 417.754 506.644V492.72H94.246V506.645C94.246 509.602 96.644 512 99.602 512V512Z" fill="#56CAED"/>
<path d="M256 406.558L336.641 317.825L336.108 308.768C322.676 303.82 308.16 301.115 293.011 301.115H218.989C203.981 301.115 189.595 303.77 176.268 308.63L176.688 319.288L256 406.558Z" fill="#E4EEF9"/>
<path d="M175.894 308.773C171.584 310.361 167.384 312.175 163.312 314.209L166.628 328.466L256 425.838L346.281 327.465L348.688 314.209C344.616 312.175 340.416 310.36 336.106 308.773L259.963 392.556C257.838 394.894 254.161 394.894 252.036 392.556L175.894 308.773Z" fill="#D5E0F2"/>
<path d="M256 406.558C256 406.558 269.877 391.288 278.688 381.593L280.675 369.767L274.766 337.379L256 327.737L237.234 337.377L231.325 369.765L233.312 381.591L256 406.558Z" fill="#FF5876"/>
<path d="M274.766 337.378H237.234L229.048 301.116H282.952L274.766 337.378Z" fill="#E6485D"/>
<path d="M283.605 385.822L280.675 369.766L259.963 392.556C257.838 394.894 254.161 394.894 252.036 392.556L231.324 369.766L228.394 385.822L256 435.478L283.605 385.822Z" fill="#E6485D"/>
<path d="M163.312 314.21C156.954 317.387 150.903 321.088 145.219 325.261L146.449 336.255L244.109 443.715C250.484 450.73 261.514 450.73 267.889 443.715L366.607 335.091L366.779 325.261C361.095 321.089 355.045 317.387 348.686 314.21L259.7 412.126C257.716 414.309 254.283 414.309 252.3 412.126L163.312 314.21Z" fill="#FFCF4D"/>
<path d="M267.89 434.074C261.515 441.089 250.485 441.089 244.11 434.074L145.221 325.263C141.726 327.828 138.368 330.569 135.164 333.478L244.11 453.354C250.485 460.369 261.515 460.369 267.89 453.354L376.835 333.477C373.631 330.568 370.273 327.828 366.778 325.262L267.89 434.074Z" fill="#FFB629"/>
<path d="M164.396 194.884L154.756 168.935C153.608 168.817 152.444 168.756 151.265 168.756C136.116 168.756 123.298 178.734 119.024 192.476C118.038 195.647 118.977 226.634 151.265 226.634L155.014 216.781L164.396 194.884Z" fill="#FFC4AD"/>
<path d="M151.265 216.993C135.971 216.993 123.06 206.82 118.911 192.874C118.002 195.93 117.506 199.163 117.506 202.514C117.506 221.158 132.62 236.273 151.265 236.273C153.624 236.273 155.925 236.029 158.148 235.569L165.847 226.633L155.022 216.779C153.788 216.917 152.535 216.993 151.265 216.993V216.993Z" fill="#FFB69F"/>
<path d="M347.604 194.884L357.244 168.935C358.392 168.817 359.556 168.756 360.735 168.756C375.884 168.756 388.702 178.734 392.976 192.476C393.962 195.647 393.023 226.634 360.735 226.634L356.986 216.781L347.604 194.884Z" fill="#FFC4AD"/>
<path d="M360.735 216.993C376.029 216.993 388.94 206.82 393.089 192.874C393.998 195.93 394.494 199.163 394.494 202.514C394.494 221.158 379.38 236.273 360.735 236.273C358.376 236.273 356.075 236.029 353.852 235.569L346.153 226.633L356.978 216.779C358.212 216.917 359.465 216.993 360.735 216.993V216.993Z" fill="#FFB69F"/>
<path d="M154.756 64.99V190.232V199.872C154.756 255.788 200.085 301.116 256 301.116C311.915 301.116 357.244 255.788 357.244 199.872V190.232V64.99H154.756Z" fill="#FFE0CC"/>
<path d="M256 291.475C200.085 291.475 154.756 246.147 154.756 190.231V209.511C154.756 265.427 200.085 310.755 256 310.755C311.915 310.755 357.244 265.427 357.244 209.511V190.231C357.244 246.147 311.915 291.475 256 291.475Z" fill="#FFCEB3"/>
<path d="M352.579 136.646C334.431 121.171 318.566 104.045 318.566 104.045C289.658 127.281 267.933 129.321 267.933 129.321L246.686 108.588C210.558 135.803 168.84 141.177 157.467 140.894C155.738 140.851 154.026 140.569 152.369 140.062C125.867 131.95 115.854 115.879 115.854 115.879C115.854 115.879 112.757 108.84 117.646 107.9C143.237 102.977 152.233 85.441 152.233 85.441C123.749 86.302 114.547 65.185 111.644 53.576C110.749 49.998 113.611 46.627 117.288 46.916C170.485 51.103 183.396 18.319 233.419 3.54503C285.548 -11.851 322.456 27.911 322.456 27.911C322.456 27.911 375.287 22.81 379.82 76.668C384.153 128.145 352.579 136.646 352.579 136.646V136.646Z" fill="#2D4456"/>
<path d="M353.508 127.32C340.737 118.287 329.017 101.571 322.934 91.999C320.93 88.844 316.432 88.718 314.144 91.673C292.256 119.941 246.686 108.588 246.686 108.588C246.686 108.588 257.877 122.291 257.853 138.387C257.848 141.849 261.017 144.426 264.392 143.657C277.254 140.725 304.177 131.489 318.566 104.046C318.566 104.046 334.919 133.446 353.497 146.594C355.679 148.138 358.664 147.838 360.491 145.888C367.447 138.462 382.881 117.28 379.898 77.829C377.675 105.05 366.231 120.471 360.504 126.592C358.675 128.546 355.694 128.866 353.508 127.32V127.32Z" fill="#253847"/>
<path d="M247.818 102.237C248.545 97.204 242.513 94.064 238.856 97.597C206.361 128.991 167.981 131.516 157.467 131.254C155.738 131.211 154.026 130.929 152.369 130.422C139.502 126.484 127.056 116.808 117.645 107.892C115.779 108.251 113.826 108.544 111.782 108.759C107.421 109.216 105.402 114.422 108.349 117.669C117.613 127.876 134.599 144.263 152.369 149.702C154.027 150.209 155.738 150.491 157.467 150.534C168.84 150.817 212.82 147.839 246.686 108.588C247.183 106.184 247.552 104.079 247.818 102.237V102.237Z" fill="#253847"/>
<path d="M165.62 437.98V492.72L158.12 502.36L150.62 492.72V437.98C150.62 433.83 153.98 430.48 158.12 430.48C162.27 430.48 165.62 433.83 165.62 437.98Z" fill="#4EA1F4"/>
<path d="M150.62 492.72H165.62V512H150.62V492.72Z" fill="#3292E0"/>
<path d="M361.38 437.98V492.72L353.88 502.36L346.38 492.72V437.98C346.38 433.83 349.74 430.48 353.88 430.48C358.03 430.48 361.38 433.83 361.38 437.98Z" fill="#4EA1F4"/>
<path d="M346.38 492.72H361.38V512H346.38V492.72Z" fill="#3292E0"/>
<path d="M256 261.119C284.558 261.119 293.192 241.049 293.569 240.138C293.57 240.136 293.571 240.133 293.572 240.132C295.847 235.02 291.803 228.851 286.168 228.977C282.82 228.977 279.953 231.026 278.746 233.937C278.34 234.797 273.125 245.053 256.001 245.053C238.881 245.053 233.665 234.803 233.256 233.938C232.049 231.027 229.182 228.978 225.834 228.978C220.199 228.851 216.155 235.022 218.43 240.133C218.431 240.134 218.432 240.138 218.433 240.139C218.808 241.049 227.442 261.119 256 261.119V261.119Z" fill="#FF5876"/>
<path d="M206.941 170.362C202.504 170.362 198.908 173.959 198.908 178.395V201.093C198.908 205.53 202.505 209.126 206.941 209.126C211.378 209.126 214.974 205.529 214.974 201.093V178.395C214.974 173.959 211.378 170.362 206.941 170.362Z" fill="#2D4456"/>
<path d="M305.059 209.127C309.496 209.127 313.093 205.53 313.093 201.094V178.396C313.093 173.959 309.496 170.363 305.059 170.363C300.622 170.363 297.026 173.96 297.026 178.396V201.094C297.026 205.53 300.622 209.127 305.059 209.127Z" fill="#2D4456"/>
</g>
<defs>
<clipPath id="clip0">
<rect width="512" height="512" fill="white"/>
</clipPath>
</defs>
</svg>
