<svg width="512" height="512" viewBox="0 0 512 512" fill="none" xmlns="http://www.w3.org/2000/svg">
<path d="M380.42 272.25L377.78 296L376 312H152L150.22 296L147.58 272.25C145.233 251.113 148.403 229.728 156.78 210.18C164.159 192.952 167.511 174.268 166.58 155.55L165.19 127.87C164.522 114.479 166.582 101.092 171.246 88.5225C175.91 75.9525 183.08 64.4617 192.321 54.7479C201.562 45.034 212.682 37.2999 225.003 32.0151C237.325 26.7303 250.593 24.0051 264 24.0051C277.407 24.0051 290.675 26.7303 302.997 32.0151C315.318 37.2999 326.438 45.034 335.679 54.7479C344.92 64.4617 352.09 75.9525 356.754 88.5225C361.418 101.092 363.478 114.479 362.81 127.87L361.42 155.55C360.489 174.268 363.841 192.952 371.22 210.18C379.6 229.727 382.77 251.113 380.42 272.25V272.25Z" fill="#8F4D2E"/>
<path d="M380.42 272.25L377.78 296H288V208L304 176V112C303.99 92.7143 297.651 73.9649 285.956 58.6298C274.261 43.2948 257.856 32.2216 239.26 27.11C254.285 23.2534 270.005 22.9797 285.155 26.3109C300.305 29.6421 314.46 36.4851 326.481 46.2887C338.502 56.0922 348.052 68.5822 354.362 82.7524C360.672 96.9225 363.566 112.377 362.81 127.87L361.42 155.55C360.489 174.268 363.841 192.952 371.22 210.18C379.6 229.727 382.77 251.113 380.42 272.25V272.25Z" fill="#82462A"/>
<path d="M307.2 280C305.729 280.001 304.272 279.712 302.913 279.149C301.554 278.586 300.319 277.762 299.279 276.721C298.238 275.681 297.414 274.446 296.851 273.087C296.288 271.728 295.999 270.271 296 268.8V216H232V268.8C232.001 270.271 231.712 271.728 231.149 273.087C230.586 274.446 229.762 275.681 228.721 276.721C227.681 277.762 226.446 278.586 225.087 279.149C223.728 279.712 222.271 280.001 220.8 280H208V328H320V280H307.2Z" fill="#FEC9A3"/>
<path d="M268.824 256C278.73 255.891 288.308 252.435 296 246.193V216H232V246.19C239.692 252.433 249.27 255.89 259.176 256H268.824Z" fill="#FEB784"/>
<path d="M336 128V168C336 187.096 328.414 205.409 314.912 218.912C301.409 232.414 283.096 240 264 240C244.904 240 226.591 232.414 213.088 218.912C199.586 205.409 192 187.096 192 168V128C207.73 117.518 220.45 103.109 228.9 86.2L232 80L236.54 83.79C256.417 100.354 279.331 112.887 304 120.69C314.448 124.001 325.151 126.446 336 128V128Z" fill="#FEC9A3"/>
<path d="M336 128V168C335.996 184.712 330.182 200.902 319.554 213.798C308.925 226.695 294.143 235.494 277.74 238.69C286.069 230.514 292.682 220.758 297.191 209.993C301.701 199.228 304.015 187.671 304 176V120.69C314.448 124.001 325.151 126.446 336 128V128Z" fill="#FEC093"/>
<path d="M228 160C225.627 160 223.307 159.296 221.333 157.978C219.36 156.659 217.822 154.785 216.913 152.592C216.005 150.399 215.768 147.987 216.231 145.659C216.694 143.331 217.836 141.193 219.515 139.515C221.193 137.836 223.331 136.694 225.659 136.231C227.987 135.768 230.399 136.005 232.592 136.913C234.785 137.822 236.659 139.36 237.978 141.333C239.296 143.307 240 145.627 240 148C239.997 151.182 238.731 154.232 236.481 156.481C234.232 158.731 231.182 159.997 228 160V160Z" fill="#7A432A"/>
<path d="M300 160C297.627 160 295.307 159.296 293.333 157.978C291.36 156.659 289.822 154.785 288.913 152.592C288.005 150.399 287.768 147.987 288.231 145.659C288.694 143.331 289.836 141.193 291.515 139.515C293.193 137.836 295.331 136.694 297.659 136.231C299.987 135.768 302.399 136.005 304.592 136.913C306.785 137.822 308.659 139.36 309.978 141.333C311.296 143.307 312 145.627 312 148C311.997 151.182 310.731 154.232 308.481 156.481C306.232 158.731 303.182 159.997 300 160Z" fill="#7A432A"/>
<path d="M264 200C257.637 199.993 251.537 197.462 247.037 192.963C242.538 188.463 240.007 182.363 240 176H256C256 178.122 256.843 180.157 258.343 181.657C259.843 183.157 261.878 184 264 184C266.122 184 268.157 183.157 269.657 181.657C271.157 180.157 272 178.122 272 176H288C287.993 182.363 285.462 188.463 280.963 192.963C276.463 197.462 270.363 199.993 264 200V200Z" fill="#F7A468"/>
<path d="M224 312H304V368H224V312Z" fill="#E0E0DE"/>
<path d="M426.97 487.67C421.295 488.615 415.468 487.515 410.529 484.564C405.589 481.614 401.858 477.005 400 471.56L347.16 372.43C350.524 382.488 351.265 393.239 349.312 403.664C347.359 414.088 342.777 423.842 336 432V496H192V432C185.125 423.748 180.496 413.86 178.562 403.294C176.628 392.729 177.454 381.843 180.96 371.69L127.26 471.56C125.199 477.621 120.827 482.623 115.095 485.475C109.364 488.328 102.738 488.801 96.6592 486.791C90.5808 484.781 85.5426 480.451 82.6415 474.744C79.7405 469.037 79.2116 462.415 81.17 456.32L139.91 310.11C143.479 301.218 149.629 293.598 157.567 288.232C165.505 282.865 174.868 279.998 184.45 280H216L264 368L312 280H343.43C353.039 280.007 362.425 282.895 370.375 288.291C378.326 293.687 384.476 301.343 388.03 310.27L446.1 456.32C447.161 459.638 447.495 463.146 447.081 466.604C446.666 470.063 445.513 473.392 443.698 476.366C441.884 479.34 439.451 481.888 436.564 483.839C433.678 485.789 430.406 487.096 426.97 487.67V487.67Z" fill="#EC8C8C"/>
<path d="M74.23 459.01L80 384H128V461.075C128 468.216 125.163 475.064 120.114 480.114C115.064 485.163 108.216 488 101.075 488C97.3652 488 93.6954 487.233 90.2958 485.748C86.8962 484.263 83.8403 482.091 81.3197 479.369C78.7991 476.647 76.8682 473.434 75.6482 469.93C74.4282 466.427 73.9453 462.709 74.23 459.01V459.01Z" fill="#F59898"/>
<path d="M98.821 267.3C96.5602 267.865 94.4551 268.931 92.6613 270.418C90.8675 271.906 89.4306 273.777 88.4568 275.895C87.483 278.012 86.9972 280.321 87.0351 282.651C87.0731 284.981 87.6338 287.273 88.676 289.357L96 304H67.331C59.8794 304 52.53 302.265 45.865 298.933L37.893 294.947C36.4294 294.215 34.8031 293.87 33.1684 293.943C31.5338 294.017 29.9451 294.507 28.5531 295.367C27.1612 296.227 26.0122 297.429 25.2153 298.858C24.4185 300.288 24.0001 301.897 24 303.533V326.111C24 329.082 24.8275 331.995 26.3897 334.523C27.952 337.05 30.1872 339.093 32.845 340.422L45.865 346.933C52.53 350.265 59.8794 352 67.331 352H128V304L117.045 276.613C115.647 273.12 113.03 270.252 109.679 268.539C106.329 266.827 102.471 266.387 98.821 267.3V267.3Z" fill="#FEC9A3"/>
<path d="M80 352H128V384H80V352Z" fill="#E0E0DE"/>
<path d="M426.97 487.67C421.295 488.615 415.468 487.515 410.529 484.564C405.589 481.614 401.858 477.005 400 471.56L347.16 372.43C350.524 382.488 351.265 393.239 349.312 403.664C347.359 414.088 342.777 423.842 336 432V496H194.63C260.66 452.88 316.37 398.16 363.13 284.24C374.499 289.348 383.431 298.685 388.03 310.27L446.1 456.32C447.161 459.638 447.495 463.146 447.081 466.604C446.666 470.063 445.513 473.392 443.698 476.366C441.884 479.34 439.451 481.888 436.564 483.839C433.678 485.789 430.406 487.096 426.97 487.67V487.67Z" fill="#E07F7F"/>
<path d="M376 464L296 448V336L376 352V464Z" fill="#A36548"/>
<path d="M408 464L488 448V336L408 352V464Z" fill="#8F4D2E"/>
<path d="M376 352H408V464H376V352Z" fill="#95573A"/>
<path d="M392 352C392 345.294 389.621 338.805 385.286 333.688C380.951 328.57 374.942 325.157 368.327 324.054L296 312V336L376 352H392C392 345.294 394.379 338.805 398.714 333.688C403.049 328.57 409.058 325.157 415.673 324.054L488 312V336L408 352H392Z" fill="#D4BD81"/>
<path d="M473.315 463.237L441.315 468.571C440.169 468.762 438.995 468.701 437.875 468.392C436.755 468.084 435.716 467.535 434.829 466.784C433.943 466.033 433.23 465.098 432.742 464.044C432.253 462.99 432 461.842 432 460.68V430.945C432 428.48 432.874 426.095 434.467 424.214C436.06 422.333 438.269 421.078 440.7 420.673L467.872 416.144C469.364 415.895 470.892 415.974 472.351 416.376C473.809 416.777 475.163 417.492 476.317 418.47C477.471 419.447 478.399 420.665 479.035 422.037C479.671 423.41 480 424.904 480 426.417V455.346C480 457.24 479.328 459.072 478.104 460.517C476.88 461.962 475.183 462.926 473.315 463.237Z" fill="#FEC9A3"/>
</svg>
